<svg data-v-423bf9ae="" xmlns="http://www.w3.org/2000/svg" viewBox="0 0 443 90" class="iconLeft"><!----><!----><!---->
  <g data-v-423bf9ae="" id="e86ea04c-8b73-4aa9-9536-8e3c7cbcc417" fill="white" transform="matrix(5.639098067841383,0,0,5.639098067841383,109.66164821449644,-1.9736834614938772)">
    <path
      d="M0.06 13.51L3.39 8.57L0.11 3.71L1.65 3.71L4.16 7.42L6.65 3.71L8.19 3.71L4.93 8.57L8.25 13.51L6.71 13.51L4.16 9.72L1.60 13.51L0.06 13.51ZM9.42 13.51L9.42 3.71L12.66 3.71L12.66 3.71Q14.22 3.71 15.10 4.47L15.10 4.47L15.10 4.47Q15.97 5.24 15.97 6.89L15.97 6.89L15.97 6.89Q15.97 8.51 15.09 9.30L15.09 9.30L15.09 9.30Q14.21 10.08 12.66 10.08L12.66 10.08L10.82 10.08L10.82 13.51L9.42 13.51ZM10.82 8.89L12.46 8.89L12.46 8.89Q13.54 8.89 14.07 8.40L14.07 8.40L14.07 8.40Q14.60 7.91 14.60 6.90L14.60 6.90L14.60 6.90Q14.60 5.88 14.09 5.39L14.09 5.39L14.09 5.39Q13.58 4.90 12.46 4.90L12.46 4.90L10.82 4.90L10.82 8.89ZM19.38 13.51L19.38 4.91L16.52 4.91L16.52 3.71L23.56 3.71L23.56 4.91L20.71 4.91L20.71 13.51L19.38 13.51ZM24.63 13.51L24.63 6.65L25.66 6.65L25.82 7.78L25.82 7.78Q26.35 7.13 26.83 6.82L26.83 6.82L26.83 6.82Q27.31 6.51 27.85 6.51L27.85 6.51L27.85 6.51Q28.01 6.51 28.17 6.55L28.17 6.55L28.04 7.94L28.04 7.94Q27.86 7.90 27.62 7.90L27.62 7.90L27.62 7.90Q27.10 7.90 26.64 8.13L26.64 8.13L26.64 8.13Q26.18 8.36 25.97 8.67L25.97 8.67L25.97 13.51L24.63 13.51ZM30.65 13.65L30.65 13.65Q29.69 13.65 29.11 13.09L29.11 13.09L29.11 13.09Q28.53 12.53 28.53 11.66L28.53 11.66L28.53 11.66Q28.53 10.36 29.76 9.80L29.76 9.80L29.76 9.80Q31.00 9.24 32.63 9.21L32.63 9.21L32.63 9.21Q32.63 8.29 32.28 7.96L32.28 7.96L32.28 7.96Q31.92 7.63 31.14 7.63L31.14 7.63L31.14 7.63Q30.70 7.63 30.27 7.76L30.27 7.76L30.27 7.76Q29.83 7.90 29.33 8.25L29.33 8.25L29.15 7.22L29.15 7.22Q29.57 6.90 30.18 6.71L30.18 6.71L30.18 6.71Q30.80 6.51 31.47 6.51L31.47 6.51L31.47 6.51Q32.35 6.51 32.88 6.82L32.88 6.82L32.88 6.82Q33.40 7.13 33.65 7.84L33.65 7.84L33.65 7.84Q33.89 8.55 33.89 9.80L33.89 9.80L33.89 11.20L33.89 11.20Q33.89 11.76 33.94 12.05L33.94 12.05L33.94 12.05Q33.99 12.33 34.16 12.49L34.16 12.49L34.16 12.49Q34.33 12.64 34.68 12.64L34.68 12.64L34.80 12.64L34.61 13.65L34.51 13.65L34.51 13.65Q33.92 13.65 33.59 13.54L33.59 13.54L33.59 13.54Q33.25 13.43 33.08 13.22L33.08 13.22L33.08 13.22Q32.90 13.01 32.75 12.64L32.75 12.64L32.75 12.64Q31.88 13.65 30.65 13.65L30.65 13.65ZM30.88 12.64L30.88 12.64Q31.39 12.64 31.86 12.39L31.86 12.39L31.86 12.39Q32.33 12.14 32.63 11.72L32.63 11.72L32.63 10.08L32.63 10.08Q31.12 10.14 30.47 10.48L30.47 10.48L30.47 10.48Q29.82 10.82 29.82 11.59L29.82 11.59L29.82 11.59Q29.82 12.12 30.11 12.38L30.11 12.38L30.11 12.38Q30.39 12.64 30.88 12.64L30.88 12.64ZM38.92 13.65L38.92 13.65Q37.80 13.65 37.00 13.19L37.00 13.19L37.00 13.19Q36.19 12.73 35.78 11.92L35.78 11.92L35.78 11.92Q35.38 11.12 35.38 10.12L35.38 10.12L35.38 10.12Q35.38 8.50 36.30 7.50L36.30 7.50L36.30 7.50Q37.21 6.51 39.02 6.51L39.02 6.51L39.02 6.51Q40.08 6.51 40.89 6.92L40.89 6.92L40.70 8.02L40.70 8.02Q39.84 7.63 38.99 7.63L38.99 7.63L38.99 7.63Q37.87 7.63 37.27 8.27L37.27 8.27L37.27 8.27Q36.67 8.90 36.67 10.07L36.67 10.07L36.67 10.07Q36.67 11.23 37.25 11.89L37.25 11.89L37.25 11.89Q37.83 12.54 38.96 12.54L38.96 12.54L38.96 12.54Q39.87 12.54 40.71 12.12L40.71 12.12L40.88 13.13L40.88 13.13Q40.57 13.34 40.03 13.50L40.03 13.50L40.03 13.50Q39.49 13.65 38.92 13.65L38.92 13.65ZM42.11 13.51L42.11 3.01L43.37 3.01L43.37 9.74L45.89 6.65L47.43 6.65L44.70 9.84L47.50 13.51L45.96 13.51L43.37 10.02L43.37 13.51L42.11 13.51ZM51.69 13.65L51.69 13.65Q50.51 13.65 49.68 13.17L49.68 13.17L49.68 13.17Q48.85 12.68 48.41 11.86L48.41 11.86L48.41 11.86Q47.98 11.03 47.98 10.02L47.98 10.02L47.98 10.02Q47.98 9.06 48.38 8.25L48.38 8.25L48.38 8.25Q48.78 7.45 49.54 6.98L49.54 6.98L49.54 6.98Q50.30 6.51 51.34 6.51L51.34 6.51L51.34 6.51Q52.65 6.51 53.47 7.28L53.47 7.28L53.47 7.28Q54.29 8.05 54.29 9.41L54.29 9.41L54.29 9.41Q54.29 9.76 54.24 10.08L54.24 10.08L49.27 10.08L49.27 10.08Q49.39 11.41 50.08 11.97L50.08 11.97L50.08 11.97Q50.76 12.53 51.84 12.53L51.84 12.53L51.84 12.53Q52.92 12.53 53.82 12.12L53.82 12.12L53.98 13.12L53.98 13.12Q52.79 13.65 51.69 13.65L51.69 13.65ZM49.38 9.21L52.99 9.21L52.99 9.21Q52.99 8.47 52.57 8.05L52.57 8.05L52.57 8.05Q52.15 7.63 51.31 7.63L51.31 7.63L51.31 7.63Q50.50 7.63 50.04 8.03L50.04 8.03L50.04 8.03Q49.57 8.43 49.38 9.21L49.38 9.21ZM55.57 13.51L55.57 6.65L56.60 6.65L56.76 7.78L56.76 7.78Q57.29 7.13 57.77 6.82L57.77 6.82L57.77 6.82Q58.25 6.51 58.79 6.51L58.79 6.51L58.79 6.51Q58.95 6.51 59.11 6.55L59.11 6.55L58.98 7.94L58.98 7.94Q58.80 7.90 58.56 7.90L58.56 7.90L58.56 7.90Q58.04 7.90 57.58 8.13L57.58 8.13L57.58 8.13Q57.12 8.36 56.91 8.67L56.91 8.67L56.91 13.51L55.57 13.51Z"></path>
  </g><!---->
  <g data-v-423bf9ae="" id="feac05f6-713f-45ad-ad42-d2ff396cfc51" transform="matrix(2.8125,0,0,2.8125,0,0)" stroke="none" fill="white">
    <path d="M9.382 8.675h13.943v13.943L32 31.293V0H.707zM22.618 23.325H8.675V9.382L0 .707V32h31.293z"></path>
  </g><!----></svg>
